<svg version="1.1" viewBox="0.0 0.0 960.0 540.0" fill="none" stroke="none" stroke-linecap="square" stroke-miterlimit="10" xmlns:xlink="http://www.w3.org/1999/xlink" xmlns="http://www.w3.org/2000/svg"><clipPath id="g2c8edd5e317_0_7.0"><path d="m0 0l960.0 0l0 540.0l-960.0 0l0 -540.0z" clip-rule="nonzero"/></clipPath><g clip-path="url(#g2c8edd5e317_0_7.0)"><path fill="#000000" fill-opacity="0.0" d="m0 0l960.0 0l0 540.0l-960.0 0z" fill-rule="evenodd"/><path fill="#000000" fill-opacity="0.0" d="m0 0l960.0 0l0 540.0l-960.0 0z" fill-rule="evenodd"/><path fill="#ffff00" d="m227.80023 349.68q-3.765625 0 -6.203125 -2.3125q-2.4375 -2.328125 -2.4375 -6.09375l0 -63.75q0 -15.71875 -8.1875 -24.890625q-8.1875 -9.1875 -21.015625 -9.1875q-13.734375 0 -22.484375 9.1875q-8.734375 9.171875 -8.515625 24.453125l-15.265625 0q0.21875 -14.828125 6.40625 -26.109375q6.203125 -11.296875 17.046875 -17.484375q10.859375 -6.203125 24.578125 -6.203125q13.0625 0 23.125 6.203125q10.078125 6.1875 15.71875 17.484375q5.640625 11.28125 5.640625 26.546875l0 63.75q0 3.765625 -2.328125 6.09375q-2.3125 2.3125 -6.078125 2.3125zm-154.9375 0q-3.984375 0 -6.3125 -2.3125q-2.3125 -2.328125 -2.3125 -6.09375l0 -104.03125q0 -3.765625 2.3125 -6.1875q2.328125 -2.4375 6.3125 -2.4375q3.765625 0 6.09375 2.4375q2.328125 2.421875 2.328125 6.1875l0 104.03125q0 3.765625 -2.328125 6.09375q-2.328125 2.3125 -6.09375 2.3125zm77.6875 0q-3.765625 0 -6.203125 -2.3125q-2.421875 -2.328125 -2.421875 -6.09375l0 -63.75q0 -15.71875 -8.1875 -24.890625q-8.1875 -9.1875 -21.03125 -9.1875q-13.71875 0 -22.578125 8.96875q-8.84375 8.953125 -8.84375 23.34375l-12.1875 0q0.453125 -14.171875 6.3125 -25.125q5.875 -10.953125 16.046875 -17.140625q10.1875 -6.203125 23.015625 -6.203125q13.0625 0 23.125 6.203125q10.078125 6.1875 15.71875 17.484375q5.640625 11.28125 5.640625 26.546875l0 63.75q0 3.765625 -2.328125 6.09375q-2.3125 2.3125 -6.078125 2.3125zm178.39453 1.109375q-17.703125 0 -31.65625 -7.96875q-13.9375 -7.96875 -21.90625 -21.90625q-7.96875 -13.953125 -7.96875 -31.65625q0 -17.921875 7.96875 -31.859375q7.96875 -13.953125 21.90625 -21.921875q13.953125 -7.96875 31.65625 -7.96875q17.703125 0 31.53125 7.96875q13.84375 7.96875 21.8125 21.921875q7.96875 13.9375 8.1875 31.859375q0 17.703125 -8.078125 31.65625q-8.078125 13.9375 -21.921875 21.90625q-13.828125 7.96875 -31.53125 7.96875zm0 -15.5q12.84375 0 23.015625 -5.96875q10.1875 -5.984375 15.9375 -16.375q5.75 -10.40625 5.75 -23.6875q0 -13.28125 -5.75 -23.796875q-5.75 -10.515625 -15.9375 -16.484375q-10.171875 -5.984375 -23.015625 -5.984375q-12.84375 0 -23.03125 5.984375q-10.171875 5.96875 -16.046875 16.484375q-5.859375 10.515625 -5.859375 23.796875q0 13.28125 5.859375 23.6875q5.875 10.390625 16.046875 16.375q10.1875 5.96875 23.03125 5.96875z" fill-rule="nonzero"/><path fill="#ff00ff" d="m478.7838 350.78937q-17.484375 0 -31.4375 -8.078125q-13.9375 -8.078125 -22.015625 -22.015625q-8.078125 -13.953125 -8.078125 -31.65625q0 -17.484375 7.859375 -31.421875q7.859375 -13.953125 21.359375 -22.03125q13.5 -8.078125 30.546875 -8.078125q14.828125 0 26.765625 6.3125q11.953125 6.296875 19.265625 16.703125l0 -65.0625q0 -3.984375 2.4375 -6.3125q2.4375 -2.328125 6.1875 -2.328125q3.765625 0 6.203125 2.328125q2.4375 2.328125 2.4375 6.3125l0 104.453125q-0.453125 17.265625 -8.53125 31.109375q-8.078125 13.828125 -21.90625 21.796875q-13.828125 7.96875 -31.09375 7.96875zm0 -15.5q12.84375 0 22.90625 -6.078125q10.078125 -6.09375 15.9375 -16.484375q5.859375 -10.40625 5.859375 -23.6875q0 -13.0625 -5.859375 -23.578125q-5.859375 -10.515625 -15.9375 -16.484375q-10.0625 -5.984375 -22.90625 -5.984375q-12.609375 0 -22.796875 5.984375q-10.1875 5.96875 -16.171875 16.484375q-5.96875 10.515625 -5.96875 23.578125q0 13.28125 5.96875 23.6875q5.984375 10.390625 16.171875 16.484375q10.1875 6.078125 22.796875 6.078125zm154.04138 15.71875q-15.71875 0 -28.109375 -6.53125q-12.390625 -6.53125 -19.59375 -19.140625q-7.1875 -12.625 -7.1875 -30.765625l0 -57.546875q0 -3.546875 2.4375 -5.96875q2.4375 -2.4375 5.96875 -2.4375q3.765625 0 6.203125 2.4375q2.4375 2.421875 2.4375 5.96875l0 57.546875q0 13.71875 5.203125 22.578125q5.203125 8.84375 14.15625 13.28125q8.96875 4.421875 20.25 4.421875q10.859375 0 19.59375 -4.203125q8.75 -4.203125 13.828125 -11.5q5.09375 -7.3125 5.09375 -16.609375l12.171875 0q-0.65625 13.9375 -7.640625 24.90625q-6.96875 10.953125 -18.703125 17.265625q-11.71875 6.296875 -26.109375 6.296875zm48.6875 -1.328125q-3.75 0 -6.078125 -2.3125q-2.328125 -2.328125 -2.328125 -6.3125l0 -104.03125q0 -3.765625 2.328125 -6.078125q2.328125 -2.328125 6.078125 -2.328125q3.765625 0 6.203125 2.328125q2.4375 2.3125 2.4375 6.078125l0 104.03125q0 3.984375 -2.4375 6.3125q-2.4375 2.3125 -6.203125 2.3125z" fill-rule="nonzero"/><path fill="#00ff00" d="m756.1018 349.68q-8.84375 0 -15.828125 -4.859375q-6.96875 -4.875 -10.84375 -13.5q-3.859375 -8.640625 -3.859375 -19.9375l0 -126.15625q0 -3.75 2.3125 -6.078125q2.328125 -2.328125 6.09375 -2.328125q3.765625 0 6.078125 2.328125q2.328125 2.328125 2.328125 6.078125l0 126.15625q0 9.53125 3.875 15.5q3.875 5.96875 9.84375 5.96875l5.53125 0q3.328125 0 5.3125 2.328125q2.0 2.328125 2.0 6.09375q0 3.765625 -2.765625 6.09375q-2.765625 2.3125 -7.203125 2.3125l-2.875 0zm83.00891 1.109375q-17.046875 0 -30.546875 -8.078125q-13.5 -8.078125 -21.359375 -22.015625q-7.859375 -13.953125 -7.859375 -31.4375q0 -17.703125 8.078125 -31.640625q8.078125 -13.953125 22.015625 -22.03125q13.953125 -8.078125 31.4375 -8.078125q17.484375 0 31.3125 8.078125q13.84375 8.078125 21.921875 22.03125q8.078125 13.9375 8.296875 31.640625l-6.859375 5.3125q0 15.9375 -7.421875 28.671875q-7.40625 12.71875 -20.140625 20.140625q-12.71875 7.40625 -28.875 7.40625zm1.765625 -15.5q12.84375 0 22.90625 -5.96875q10.078125 -5.984375 15.9375 -16.484375q5.859375 -10.515625 5.859375 -23.578125q0 -13.28125 -5.859375 -23.671875q-5.859375 -10.40625 -15.9375 -16.5q-10.0625 -6.09375 -22.90625 -6.09375q-12.609375 0 -22.796875 6.09375q-10.1875 6.09375 -16.171875 16.5q-5.96875 10.390625 -5.96875 23.671875q0 13.0625 5.96875 23.578125q5.984375 10.5 16.171875 16.484375q10.1875 5.96875 22.796875 5.96875zm52.890625 14.390625q-3.75 0 -6.1875 -2.3125q-2.4375 -2.328125 -2.4375 -6.09375l0 -37.84375l4.203125 -17.5l13.0625 3.328125l0 52.015625q0 3.765625 -2.4375 6.09375q-2.4375 2.3125 -6.203125 2.3125z" fill-rule="nonzero"/></g></svg>