<svg version="1.1" viewBox="0.0 0.0 960.0 264.56692913385825" fill="none" stroke="none" stroke-linecap="square" stroke-miterlimit="10" xmlns:xlink="http://www.w3.org/1999/xlink" xmlns="http://www.w3.org/2000/svg"><clipPath id="g2c8edd5e317_0_11.0"><path d="m0 0l960.0 0l0 264.56693l-960.0 0l0 -264.56693z" clip-rule="nonzero"/></clipPath><g clip-path="url(#g2c8edd5e317_0_11.0)"><path fill="#000000" fill-opacity="0.0" d="m0 0l960.0 0l0 264.56693l-960.0 0z" fill-rule="evenodd"/><path fill="#000000" fill-opacity="0.0" d="m0 -13.019572l960.0 0l0 264.56693l-960.0 0z" fill-rule="evenodd"/><path fill="#4a86e8" d="m233.9414 193.22702q-2.109375 1.046875 -3.90625 1.890625q-1.78125 0.84375 -4.109375 0.84375q-8.21875 -6.109375 -8.546875 -21.296875q-0.3125 -15.1875 6.4375 -38.609375q1.0625 -0.625 1.0625 -2.53125l-1.90625 -2.109375q-0.84375 0 -1.578125 0.21875q-0.734375 0.203125 -1.15625 1.46875q-5.484375 4.015625 -12.03125 8.34375q-6.53125 4.3125 -13.609375 8.015625q-7.0625 3.6875 -14.34375 6.015625q-7.265625 2.3125 -14.234375 2.3125q-17.71875 0 -26.578125 -17.9375l-1.6875 -3.15625l-1.6875 2.734375q-0.625 0.84375 -1.890625 3.484375q-1.265625 2.640625 -2.53125 6.015625q-1.265625 3.375 -2.21875 6.859375q-0.953125 3.46875 -0.734375 6.0q-1.90625 1.90625 -4.015625 4.4375q-2.109375 2.53125 -3.15625 5.6875q-0.421875 1.6875 0.421875 3.171875q-0.421875 1.890625 -1.90625 2.953125q-0.84375 1.046875 -1.796875 2.0q-0.9375 0.953125 -1.578125 2.0q-0.421875 1.0625 -0.53125 2.125q-0.09375 1.046875 -0.3125 2.09375q0 1.484375 -0.421875 2.75q-3.578125 7.375 -5.6875 9.59375q-2.109375 2.21875 -5.703125 2.21875q-1.6875 0 -5.484375 -0.625q-2.734375 -2.953125 -4.953125 -8.125q-2.21875 -5.171875 -3.375 -11.078125q-1.15625 -5.90625 -1.0625 -11.921875q0.109375 -6.015625 2.015625 -10.4375q0 -0.21875 1.6875 -4.21875q1.6875 -4.015625 4.3125 -10.34375q2.640625 -6.328125 6.015625 -14.015625q3.375 -7.7031174 6.75 -14.984367q3.375 -7.28125 6.4375 -13.390625q3.0625 -6.125 5.171875 -9.28125q1.6875 -2.53125 3.046875 -4.75q1.375 -2.21875 2.640625 -4.328125q3.796875 -6.53125 7.28125 -10.859375q3.484375 -4.328125 10.234375 -6.859375q4.640625 1.90625 6.75 4.4375l0.421875 2.3125q0.84375 2.109375 2.53125 2.109375q2.3125 0.640625 3.890625 1.171875q1.59375 0.515625 3.484375 0.9375q1.484375 1.6875 2.75 4.015625q1.6875 2.53125 3.265625 4.953125q1.578125 2.421875 2.53125 4.859375q0.953125 2.421875 1.046875 4.953125q0.109375 2.53125 -0.9375 5.265625l0.203125 2.109375q1.0625 1.90625 0.421875 5.28125q-0.203125 1.46875 -0.203125 3.0625q0 1.578125 0.421875 3.46875q3.796875 2.953125 6.75 2.953125q3.375 0 6.21875 -1.578125q2.84375 -1.578125 5.375 -3.265625q1.6875 -1.265625 3.375 -2.21875q1.6875 -0.953125 3.375 -1.15625q3.796875 -3.59375 6.859375 -6.328125q3.0625 -2.75 6.4375 -5.484375q6.328125 -5.0625 12.234375 -10.96875q5.90625 -5.90625 9.484375 -14.765625q2.109375 -1.265625 4.4375 -1.265625q2.3125 0 4.84375 1.0625q2.53125 1.046875 4.859375 2.09375q0.625 0.421875 1.15625 0.640625q0.53125 0.203125 0.953125 0.421875q0 2.109375 1.6875 3.578125q0.84375 0.640625 1.046875 0.859375q0.21875 0.203125 0.640625 0.40625q3.15625 1.6875 4.0 3.375q1.484375 4.859375 5.28125 7.390625q-0.421875 2.109375 0.09375 3.90625q0.53125 1.78125 1.375 3.6875q0.21875 0.625 0.421875 1.265625q0.21875 0.625 0.640625 1.46875l-4.015625 -0.421875l0.640625 4.015625q0.421875 2.953125 -0.53125 6.546875q-0.953125 3.578125 -2.21875 5.6875q0.21875 5.484375 0.3125 8.546875q0.109375 3.0468674 -0.3125 5.6874924q-0.421875 2.640625 -1.15625 4.96875q-0.734375 2.3125 -2.0 5.046875q0.84375 13.5 -3.0625 24.578125q-3.90625 11.078125 -8.125 20.78125q-0.421875 1.046875 -0.953125 2.109375q-0.515625 1.046875 -0.9375 2.109375q-1.90625 0.625 -3.390625 1.375q-1.46875 0.734375 -3.15625 1.578125zm152.9375 -59.484375q-0.21875 2.53125 0.40625 4.859375q0.640625 2.3125 1.59375 4.53125q0.953125 2.203125 1.796875 4.53125q0.84375 2.3125 1.265625 4.640625q0.421875 2.953125 0 6.4375q-0.421875 3.46875 -1.484375 6.75q-1.046875 3.265625 -2.734375 5.90625q-1.6875 2.625 -4.015625 3.890625q-2.953125 3.796875 -7.171875 5.90625q-4.21875 2.109375 -7.796875 5.0625q-2.328125 1.484375 -5.171875 2.125q-2.84375 0.625 -5.796875 1.25q-2.328125 1.265625 -5.5 2.640625q-3.15625 1.375 -6.53125 2.53125q-3.375 1.15625 -6.75 1.6875q-3.375 0.53125 -5.90625 0.3125q-6.328125 2.328125 -12.34375 3.0625q-6.0 0.75 -14.015625 -0.9375q-7.59375 1.046875 -14.03125 -0.640625q-6.4375 -1.6875 -11.390625 -5.375q-4.953125 -3.703125 -8.65625 -8.859375q-3.6875 -5.171875 -6.0 -10.875q-1.6875 -12.015625 0.84375 -21.828125q2.53125 -9.8125 7.265625 -18.140625q4.75 -8.328117 10.859375 -15.390617q6.125 -7.078125 11.828125 -13.828125q1.265625 0.421875 2.0 -0.09375q0.734375 -0.53125 1.359375 -1.484375q0.640625 -0.953125 1.375 -1.796875q0.75 -0.84375 1.796875 -1.046875q1.484375 -3.171875 4.328125 -4.75q2.84375 -1.578125 4.53125 -4.53125q1.90625 -0.421875 3.171875 -1.265625q1.265625 -0.84375 2.421875 -1.890625q1.15625 -1.0625 2.421875 -2.015625q1.265625 -0.953125 2.953125 -1.375l0 -2.3125q3.796875 -1.6875 5.59375 -3.90625q1.796875 -2.21875 4.328125 -5.375q1.890625 -0.21875 3.046875 -0.21875q1.171875 0 3.484375 -0.421875q1.6875 -2.953125 3.0625 -4.421875q1.375 -1.484375 4.109375 -3.1718788q2.53125 1.2656288 5.59375 1.6875038q3.0625 0.421875 5.375 2.75q0.21875 2.109375 1.265625 3.265625q1.0625 1.15625 2.328125 2.109375q1.265625 0.953125 2.421875 2.015625q1.15625 1.046875 1.578125 2.9375q0.84375 0.21875 1.15625 -0.203125q0.328125 -0.421875 1.171875 -0.21875q0.625 2.953125 1.46875 3.90625q0.84375 0.953125 1.6875 3.6875q-1.046875 2.109375 -1.578125 4.328125q-0.53125 2.21875 -2.640625 3.265625q-0.203125 1.484375 0.84375 1.59375q1.0625 0.09375 1.265625 1.15625q0.21875 1.890625 -0.625 2.734375q5.0625 8.234375 9.0625 17.40625q4.015625 9.171875 9.078125 17.406242zm-26.375 20.03125q0.84375 -2.3125 2.21875 -3.78125q1.375 -1.484375 1.578125 -4.4375q-1.046875 -1.6875 -1.265625 -2.640625q-0.203125 -0.953125 -0.203125 -3.0625q-4.640625 -6.53125 -8.015625 -14.015617q-3.375 -7.5 -7.59375 -14.03125q-0.421875 0.84375 -1.484375 1.6875q-1.046875 0.84375 -2.3125 -0.421875q-0.421875 1.6875 -1.484375 2.421875q-1.046875 0.734375 -2.3125 0.640625q-1.265625 -0.109375 -2.640625 -0.640625q-1.375 -0.53125 -2.421875 -1.375q-6.125 4.859375 -12.25 9.5q-6.109375 4.6406174 -10.953125 10.749992q-0.84375 0.421875 -1.0625 0.328125q-0.203125 -0.109375 -1.265625 0.3125q-1.6875 4.0 -4.109375 7.28125q-2.421875 3.265625 -4.75 6.640625q-2.3125 3.375 -4.0 7.171875q-1.6875 3.796875 -1.90625 8.859375q3.59375 2.953125 8.4375 3.59375q4.859375 0.625 10.015625 0.203125q5.171875 -0.421875 10.125 -1.375q4.96875 -0.953125 9.1875 -0.953125q8.859375 -2.109375 15.1875 -5.578125q6.328125 -3.484375 13.28125 -7.078125z" fill-rule="nonzero"/><path fill="#ff00ff" d="m503.73828 140.07077q-0.21875 1.046875 -0.4375 1.796875q-0.203125 0.734375 -0.421875 1.375q-0.203125 0.625 -0.203125 1.578125q0 0.9375 0 2.421875q-6.328125 11.171875 -15.921875 18.765625q-9.59375 7.59375 -21.09375 13.40625q-11.5 5.796875 -23.953125 10.546875q-12.4375 4.734375 -24.25 10.234375q-5.0625 -1.265625 -7.703125 -4.21875q-2.625 -2.96875 -4.0 -6.859375q-1.375 -3.90625 -1.90625 -8.65625q-0.515625 -4.75 -0.9375 -9.8125q0.625 -2.3125 1.78125 -3.890625q1.171875 -1.59375 1.171875 -4.546875q1.6875 -5.484375 3.375 -10.75q1.6875 -5.28125 2.109375 -10.765625q0.625 -1.6875 2.3125 -2.3125q1.0625 -10.125 0.109375 -20.562492q-0.953125 -10.453125 -3.484375 -19.515625q0.21875 -2.109375 0.53125 -3.0625q0.3125 -0.953125 -0.109375 -1.375q-0.203125 -1.6875 1.15625 -1.6875q1.375 0 2.859375 0q0 -3.15625 -1.171875 -6.3125q-1.15625 -3.171875 -2.203125 -7.1875q1.46875 -3.15625 1.890625 -6.21875q0.421875 -3.0625 1.90625 -5.375q11.390625 3.578125 21.828125 8.640625q10.4375 5.0625 20.5625 7.390625q7.59375 5.484375 15.609375 10.859375q8.015625 5.375 14.546875 11.8125q6.546875 6.4375 10.96875 14.671875q4.4375 8.218742 5.078125 19.609367zm-50.0 11.59375q4.4375 -1.6875 8.75 -3.578125q4.328125 -1.90625 8.015625 -4.328125q3.703125 -2.421875 6.65625 -5.578125q2.953125 -3.171875 4.84375 -7.609375q-1.265625 -2.53125 -3.375 -4.5312424q-2.109375 -2.0 -4.21875 -3.796875q-2.109375 -1.796875 -4.109375 -3.6875q-2.0 -1.90625 -3.265625 -4.640625q-2.75 -0.421875 -4.859375 -1.578125q-2.109375 -1.171875 -4.109375 -2.328125q-2.0 -1.15625 -4.21875 -2.203125q-2.21875 -1.0625 -5.171875 -1.28125q-4.640625 -2.3125 -8.328125 -3.359375q-3.6875 -1.0625 -5.59375 -2.75q-1.46875 0 -2.3125 0.625q2.109375 8.015625 3.15625 15.09375q1.0625 7.0625 1.15625 14.124992q0.109375 7.0625 -0.734375 14.453125q-0.84375 7.375 -2.3125 16.03125q2.109375 -0.21875 3.890625 -0.953125q1.796875 -0.734375 3.59375 -1.578125q1.796875 -0.84375 3.796875 -1.578125q2.0 -0.75 4.75 -0.953125q0.625 -1.265625 1.78125 -2.109375q1.171875 -0.84375 2.21875 -1.90625zm175.71094 -74.67187q0.421875 4.640625 1.46875 8.015625q1.0625 3.375 2.328125 6.546875q1.0625 2.953125 2.0 5.796875q0.953125 2.84375 1.375 6.859375q-1.6875 5.484375 -2.421875 10.125q-0.734375 4.640625 -1.578125 9.703125q-3.375 7.3749924 -6.546875 13.078117q-3.15625 5.6875 -5.0625 9.90625q-1.046875 1.0625 -1.796875 2.4375q-0.734375 1.359375 -1.578125 2.84375q-0.421875 0.625 -1.0625 1.890625q-0.625 1.265625 -1.046875 1.6875l-4.21875 -1.46875l-0.84375 5.265625l-2.953125 0.84375l-2.109375 2.53125q-4.0 6.96875 -8.4375 11.71875q-4.421875 4.734375 -10.015625 8.4375q-5.59375 3.6875 -12.65625 6.859375q-7.0625 3.15625 -15.921875 6.953125q-3.59375 -0.421875 -6.234375 -0.53125q-2.625 -0.109375 -4.953125 -0.3125q-4.0 0 -9.90625 -0.640625q-0.640625 -1.6875 -1.90625 -2.3125q-1.265625 -0.640625 -2.3125 -0.640625q-3.59375 -1.6875 -5.390625 -4.953125q-1.78125 -3.265625 -3.46875 -7.0625q-1.0625 -2.328125 -2.125 -4.328125q-1.046875 -2.0 -2.3125 -4.109375l3.59375 -1.0625l-4.640625 -5.0625q-0.421875 -0.625 -1.0625 -1.15625q-0.625 -0.53125 -1.046875 -1.15625l-0.21875 -3.375q-0.625 -14.5625 -0.53125 -26.6875q0.109375 -12.124992 3.28125 -21.624992l0 -2.3125q0.625 -4.640625 1.25 -7.703125q0.640625 -3.0625 1.0625 -5.796875q0.640625 -4.640625 1.90625 -8.65625q2.953125 -0.625 4.421875 -2.421875q1.484375 -1.796875 2.53125 -3.265625q2.953125 -0.21875 4.0 0.84375q1.0625 1.046875 2.125 3.375q1.046875 1.890625 2.625 4.21875q1.59375 2.3125 4.75 3.578125q0.421875 1.6875 1.15625 3.484375q0.75 1.796875 1.59375 3.90625q1.6875 3.578125 3.046875 7.484375q1.375 3.90625 1.59375 7.484375q-2.109375 4.015625 -3.28125 9.296875q-1.15625 5.2656174 -1.46875 10.640617q-0.3125 5.375 0.203125 10.34375q0.53125 4.953125 1.796875 8.328125l1.265625 2.734375l3.59375 -0.421875q6.328125 -1.6875 11.484375 -3.6875q5.171875 -2.0 9.59375 -4.734375q4.4375 -2.75 8.4375 -6.4375q4.015625 -3.703125 8.453125 -8.546875q4.421875 -4.859375 7.6875 -11.078117q3.28125 -6.21875 5.484375 -12.96875q2.21875 -6.75 3.375 -13.390625q1.171875 -6.65625 1.59375 -12.5625q3.578125 -1.265625 3.578125 -5.0625l-0.421875 -2.3125q-0.84375 -1.265625 0 -2.953125q1.265625 -4.015625 5.90625 -6.125q3.375 2.109375 6.015625 4.640625q2.640625 2.53125 4.953125 5.0625z" fill-rule="nonzero"/><path fill="#ffff00" d="m687.03516 194.69577q-5.90625 1.90625 -12.875 3.796875q-6.953125 1.90625 -13.90625 1.90625q-10.546875 0 -16.671875 -5.28125q-1.046875 -2.3125 -1.890625 -3.15625q-0.640625 -0.84375 -1.171875 -1.796875q-0.515625 -0.953125 -0.734375 -2.640625q-2.53125 -2.953125 -4.015625 -6.84375q-1.46875 -3.90625 -2.0 -8.015625q-0.515625 -4.125 -0.203125 -8.34375q0.3125 -4.21875 1.375 -8.015625q0.421875 -0.84375 0.515625 -1.6875q0.109375 -0.84375 0.328125 -1.890625q0.84375 -3.375 1.78125 -6.53125q0.953125 -3.171875 2.640625 -5.5q-0.84375 -1.890625 0 -4.203125q0.84375 -2.328125 1.90625 -4.234375q2.953125 -8.015617 4.953125 -13.593742q2.0 -5.59375 4.109375 -11.078125q3.59375 -9.5 6.75 -18.78125q3.171875 -9.28125 5.703125 -20.03125q1.6875 -1.0625 2.53125 -1.484375q1.265625 -0.421875 2.109375 -0.625q3.796875 1.890625 8.859375 3.6875q5.0625 1.796875 8.4375 1.796875q1.6875 1.046875 2.109375 1.578125q0.421875 0.53125 0.84375 0.953125q2.3125 2.734375 4.0 5.59375q1.6875 2.84375 1.0625 7.484375q-1.265625 1.890625 -1.90625 1.890625q-1.046875 4.21875 -2.21875 7.171875q-1.15625 2.953125 -2.421875 5.90625q-1.46875 3.171875 -2.734375 6.34375q-1.265625 3.15625 -2.109375 7.796875q-0.84375 1.046875 -1.171875 1.890625q-0.3125 0.84375 -0.734375 1.90625q-0.421875 1.046875 -0.953125 2.21875q-0.515625 1.15625 -1.578125 2.0q-0.625 5.4843674 -2.0 8.859367q-1.375 3.375 -2.84375 6.75q-2.53125 6.109375 -4.546875 12.234375q-2.0 6.109375 -2.421875 13.921875q1.0625 -0.421875 2.0 -0.421875q0.953125 0 1.796875 0q1.90625 0 4.4375 0.625q6.328125 -3.375 13.8125 -4.0q7.484375 -0.640625 14.875 -0.84375q2.953125 0 5.90625 0q2.953125 0 5.484375 -0.421875q1.890625 1.046875 2.421875 1.15625q0.53125 0.109375 1.578125 0.109375q1.484375 0 2.53125 0.203125q2.53125 2.328125 4.84375 3.390625q2.328125 1.046875 4.859375 1.890625q2.328125 0.84375 4.53125 1.796875q2.21875 0.9375 4.328125 2.625l1.484375 9.078125q1.46875 1.890625 1.265625 2.53125q0 1.6875 -0.84375 2.53125l0.421875 2.3125q-3.171875 0.640625 -4.328125 1.484375q-1.15625 0.84375 -2.21875 1.890625q-1.6875 0.21875 -2.421875 0.21875q-0.734375 0 -1.375 0q-2.953125 0 -7.171875 1.046875q-5.6875 -1.890625 -11.8125 -1.890625q-2.3125 0 -4.84375 0.21875q-2.53125 0.203125 -5.0625 0.40625q-2.53125 0.421875 -5.171875 0.640625q-2.640625 0.203125 -5.375 0.203125l-4.859375 1.265625zm171.07812 -15.390625q-1.265625 3.578125 -3.703125 7.28125q-2.421875 3.6875 -5.6875 6.53125q-3.265625 2.84375 -7.28125 4.75q-4.0 1.90625 -8.4375 2.109375q-2.734375 -0.625 -3.6875 -1.375q-0.953125 -0.734375 -2.0 -1.359375q-0.640625 -0.4375 -1.171875 -0.75q-0.515625 -0.3125 -0.9375 -0.53125l-2.53125 -1.046875l0.84375 -2.75q0.421875 -1.6875 -0.21875 -2.625q-0.625 -0.953125 -2.53125 -2.640625q-0.625 -0.640625 -1.265625 -1.265625q-0.625 -0.640625 -1.046875 -1.265625l-3.59375 -4.015625l5.703125 -1.46875q5.265625 -1.484375 7.0625 -3.796875q1.796875 -2.328125 1.375 -7.8125q-4.21875 -0.84375 -7.078125 -0.203125q-2.84375 0.625 -5.796875 1.46875q-3.796875 1.0625 -7.703125 1.796875q-3.890625 0.734375 -8.53125 0.734375q-1.6875 0 -3.171875 -0.09375q-1.46875 -0.109375 -3.15625 -0.328125l-2.109375 -0.421875q-0.421875 -2.3125 -0.84375 -2.625q-0.421875 -0.328125 -0.84375 -0.75q-1.0625 -1.046875 -2.21875 -2.84375q-1.15625 -1.796875 -0.53125 -4.53125q-1.046875 -1.90625 -1.265625 -3.796875q-1.265625 2.53125 -1.890625 5.265625l-0.84375 2.109375l-2.109375 0.421875q-0.421875 0.21875 -0.640625 0.953125q-0.203125 0.734375 -0.203125 1.15625l-1.0625 3.59375q-0.421875 0.421875 -0.84375 0.734375q-0.421875 0.3125 -0.84375 0.734375q-0.421875 1.90625 -1.0625 3.8125q-0.625 1.890625 -1.25 3.578125q-1.0625 2.734375 -1.796875 5.375q-0.734375 2.640625 -0.53125 5.171875l-0.84375 2.3125q-1.046875 1.265625 -2.3125 2.015625q-1.265625 0.734375 -2.53125 1.359375q-0.421875 0.421875 -1.171875 0.75q-0.734375 0.3125 -1.15625 0.515625l-0.625 2.328125l-2.53125 0.421875q-2.328125 0.421875 -3.28125 0.625q-0.9375 0.21875 -2.203125 0.21875l-2.109375 -0.203125q-2.328125 -1.90625 -3.59375 -3.0625q-1.265625 -1.171875 -2.953125 -2.21875q-1.90625 -2.53125 -2.109375 -3.796875q-0.21875 -1.265625 -0.421875 -2.328125q-0.421875 -1.265625 -0.53125 -2.109375q-0.109375 -0.84375 -0.53125 -1.265625l-2.734375 -2.53125l2.3125 -1.890625l0.21875 -3.59375q4.21875 -10.75 8.96875 -20.65625q4.75 -9.921875 9.8125 -20.265625q1.6875 -3.375 3.265625 -6.75q1.578125 -3.3749924 3.265625 -6.7499924q-0.203125 -0.625 -0.203125 -1.46875q0 -0.84375 0.421875 -1.90625q2.3125 -3.578125 3.78125 -6.421875q1.484375 -2.859375 2.96875 -5.8125q1.6875 -3.578125 3.46875 -6.953125q1.796875 -3.375 4.546875 -6.96875l3.375 -1.46875q0.625 -0.21875 1.46875 -0.53125q0.84375 -0.3125 1.90625 -0.3125l3.15625 0.421875q5.90625 -2.75 10.328125 -7.703125q4.4375 -4.953125 9.078125 -11.921875l2.109375 -2.953125l2.75 1.6875q1.046875 0.640625 2.9375 1.171875q1.90625 0.515625 4.015625 1.15625q3.796875 0.84375 7.171875 1.90625q3.375 1.046875 5.484375 3.15625q1.265625 3.375 1.46875 5.0625q0.21875 1.6875 0.640625 3.375q0.640625 3.578125 1.15625 7.171875q0.53125 3.578125 0.75 8.015625q1.046875 3.578125 1.78125 7.0625q0.75 3.484375 1.375 7.0625q1.0625 5.0625 2.109375 9.8125q1.0625 4.7499924 2.75 8.968742q1.6875 0 2.109375 0.203125q1.046875 -0.421875 2.203125 -0.625q1.171875 -0.21875 2.640625 -0.421875l2.328125 -0.21875l0.84375 2.109375q0.203125 1.0625 2.109375 2.109375q2.734375 0.21875 4.0 1.171875q1.265625 0.9375 2.328125 2.0q0.84375 0.84375 1.6875 1.265625l3.15625 1.265625l-1.6875 3.15625q-2.109375 3.796875 -6.015625 7.28125q-3.890625 3.484375 -8.75 5.796875q0.21875 1.265625 0.3125 2.4375q0.109375 1.15625 0.53125 2.421875q0.640625 3.578125 1.0625 7.375q0.421875 3.796875 0 7.8125l-0.421875 0.84375zm-60.96875 -36.5q6.328125 -0.421875 11.5 -0.9375q5.171875 -0.53125 11.5 -1.796875q-1.484375 -6.328125 -3.171875 -13.187492q-1.6875 -6.859375 -3.578125 -13.609375l-1.265625 2.109375q-4.21875 4.4375 -8.125 9.921875q-3.90625 5.4843674 -6.640625 10.328117q-1.265625 1.90625 -2.53125 3.8125q-1.265625 1.890625 -2.328125 3.78125q1.265625 -0.203125 2.421875 -0.203125q1.171875 0 2.21875 -0.21875z" fill-rule="nonzero"/></g></svg>
